<svg width="25" height="25" viewBox="0 0 25 25" fill="none" xmlns="http://www.w3.org/2000/svg">
<g clip-path="url(#clip0_114_107)">
<path d="M21.3389 3.66118C18.9779 1.30024 15.8389 0 12.5 0C9.16113 0 6.02207 1.30024 3.66113 3.66118C1.3002 6.02212 0 9.16113 0 12.5C0 15.8389 1.3002 18.9779 3.66113 21.3388C6.02207 23.6997 9.16113 25 12.5 25C15.8389 25 18.9779 23.6998 21.3389 21.3388C23.6998 18.9779 25 15.8389 25 12.5C25 9.16113 23.6998 6.02207 21.3389 3.66118ZM12.5 22.5465C6.9603 22.5465 2.45352 18.0396 2.45352 12.5C2.45352 12.4909 2.45381 12.4819 2.45386 12.4729C2.45386 12.4707 2.45352 12.4685 2.45352 12.4662C2.45352 12.4623 2.454 12.4586 2.4541 12.4548C2.47847 6.98149 6.90166 2.52852 12.3635 2.45527C12.3749 2.45474 12.3862 2.45356 12.3978 2.45356C12.4047 2.45356 12.4115 2.45439 12.4184 2.45459C12.4456 2.45439 12.4728 2.45356 12.5 2.45356C18.0397 2.45356 22.5465 6.9604 22.5465 12.5C22.5465 18.0397 18.0397 22.5465 12.5 22.5465Z" fill="#2C2828"/>
<path d="M20.1312 13.1035C19.7227 13.1035 19.3916 12.7724 19.3916 12.3639C19.3916 11.9554 19.7227 11.6242 20.1312 11.6242H21.0228C20.604 7.51893 17.2746 4.26224 13.1374 3.95648V4.73261C13.1374 5.1411 12.8063 5.47225 12.3978 5.47225C11.9893 5.47225 11.6581 5.1411 11.6581 4.73261V3.97416C7.58215 4.37357 4.33542 7.64125 3.96809 11.7264H4.76653C5.17502 11.7264 5.50618 12.0576 5.50618 12.4661C5.50618 12.8745 5.17502 13.2057 4.76653 13.2057H3.96204C4.30212 17.3566 7.61394 20.6786 11.7604 21.0349V20.0973C11.7604 19.6888 12.0915 19.3576 12.5 19.3576C12.9085 19.3576 13.2397 19.6888 13.2397 20.0973V21.0349C17.42 20.6757 20.752 17.3019 21.0457 13.1035H20.1312ZM15.4942 10.5518L13.0231 13.023C12.9544 13.0917 12.8729 13.1462 12.7831 13.1833C12.6934 13.2205 12.5972 13.2397 12.5001 13.2397C12.4029 13.2397 12.3068 13.2205 12.217 13.1833C12.1273 13.1462 12.0458 13.0917 11.9771 13.023L7.67566 8.72157C7.38679 8.43275 7.38679 7.96444 7.67566 7.67557C7.96448 7.38671 8.43279 7.38671 8.72166 7.67557L12.5001 11.454L14.4483 9.50585C14.7371 9.21698 15.2054 9.21698 15.4943 9.50585C15.783 9.79467 15.783 10.263 15.4942 10.5518Z" fill="#2C2828"/>
</g>
<defs>
<clipPath id="clip0_114_107">
<rect width="25" height="25" fill="white"/>
</clipPath>
</defs>
</svg>
