<svg width="56" height="55" viewBox="0 0 56 55" fill="none" xmlns="http://www.w3.org/2000/svg">
<g id="Frame" clip-path="url(#clip0_10_69)">
<g id="Group">
<path id="Vector" d="M46.9081 52.5653H24.5863C21.9292 52.5653 19.7751 50.4113 19.7751 47.7541C19.7751 45.0969 21.9292 42.9429 24.5863 42.9429H46.9081C49.5653 42.9429 51.7193 45.0969 51.7193 47.7541C51.7193 50.4113 49.5653 52.5653 46.9081 52.5653Z" stroke="#2C2828" stroke-width="1.5" stroke-miterlimit="10" stroke-linecap="round" stroke-linejoin="round"/>
<path id="Vector_2" d="M46.8453 49.418C47.7644 49.418 48.5095 48.6729 48.5095 47.7538C48.5095 46.8347 47.7644 46.0896 46.8453 46.0896C45.9262 46.0896 45.1812 46.8347 45.1812 47.7538C45.1812 48.6729 45.9262 49.418 46.8453 49.418Z" stroke="#2C2828" stroke-width="1.5" stroke-miterlimit="10" stroke-linecap="round" stroke-linejoin="round"/>
<path id="Vector_3" d="M24.6492 49.418C25.5683 49.418 26.3134 48.6729 26.3134 47.7538C26.3134 46.8347 25.5683 46.0896 24.6492 46.0896C23.7301 46.0896 22.985 46.8347 22.985 47.7538C22.985 48.6729 23.7301 49.418 24.6492 49.418Z" stroke="#2C2828" stroke-width="1.5" stroke-miterlimit="10" stroke-linecap="round" stroke-linejoin="round"/>
<path id="Vector_4" d="M46.8453 39.9351H52.968C53.9213 39.9351 54.6942 39.1622 54.6942 38.2088V34.7231C54.6942 34.3581 54.6168 33.9973 54.4672 33.6645C54.3175 33.3316 54.099 33.0343 53.8259 32.7922L50.8352 30.1394C50.363 29.7205 49.7537 29.4893 49.1225 29.4893H31.3619M22.1748 36.5144V38.3071C22.1748 39.2062 22.9037 39.9351 23.8028 39.9351H43.0281M40.816 49.4184H30.6785C29.7594 49.4184 29.0143 48.6733 29.0143 47.7542C29.0143 46.8351 29.7594 46.09 30.6785 46.09H40.816C41.7351 46.09 42.4801 46.8351 42.4801 47.7542C42.4803 48.6732 41.7352 49.4184 40.816 49.4184ZM31.3619 39.9351H40.1327V42.9429H31.3619V39.9351Z" stroke="#FC7C21" stroke-width="1.5" stroke-miterlimit="10" stroke-linecap="round" stroke-linejoin="round"/>
<path id="Vector_5" d="M29.6944 23.0405H26.3677C26.0805 23.0405 25.7965 23.101 25.5342 23.218C25.2719 23.3351 25.0372 23.5061 24.8453 23.7199L22.6981 26.1125C22.3612 26.4878 22.1749 26.9744 22.1749 27.4788V36.5142H29.4346C30.4991 36.5142 31.362 35.6513 31.362 34.5869V24.708C31.3619 23.7871 30.6153 23.0405 29.6944 23.0405Z" stroke="#2C2828" stroke-width="1.5" stroke-miterlimit="10" stroke-linecap="round" stroke-linejoin="round"/>
<path id="Vector_6" d="M49.1226 29.4893H31.3619V26.5337H48.2486C48.4804 26.5337 48.7026 26.6258 48.8665 26.7896C49.0304 26.9535 49.1225 27.1758 49.1225 27.4076L49.1226 29.4893Z" stroke="#2C2828" stroke-width="1.5" stroke-miterlimit="10" stroke-linecap="round" stroke-linejoin="round"/>
<path id="Vector_7" d="M40.1327 26.5336V18.4795C40.1327 17.5868 39.9198 16.7071 39.5117 15.9131C39.1037 15.1192 38.5122 14.4341 37.7863 13.9145L26.5526 5.87341M27.6971 14.9596L29.4961 16.6891C29.9138 17.0907 30.2096 17.6021 30.3495 18.1644C30.4893 18.7267 30.4675 19.3171 30.2865 19.8676L29.2433 23.0408M12.9389 14.9933L6.55709 23.816C6.07057 24.4886 5.94253 25.3114 6.13653 26.0565" stroke="#2C2828" stroke-width="1.5" stroke-miterlimit="10" stroke-linecap="round" stroke-linejoin="round"/>
<path id="Vector_8" d="M10.1341 27.6507C10.2785 27.5607 10.4139 27.4572 10.5386 27.3415L21.1867 17.4707C23.8897 14.965 25.6666 11.6193 26.2287 7.97657L26.5471 5.913C26.6318 5.36388 26.5633 4.80204 26.3492 4.28937C26.135 3.77669 25.7834 3.3331 25.3333 3.00745C23.9827 2.03056 22.0961 2.33349 21.1192 3.684L15.1556 11.9286" stroke="#2C2828" stroke-width="1.5" stroke-miterlimit="10" stroke-linecap="round" stroke-linejoin="round"/>
<path id="Vector_9" d="M40.1327 32.4825V36.6867M43.532 32.4825V36.6867M46.9313 32.4825V36.6867M46.2389 26.5335V22.4153M1.30566 26.8954V35.4153C1.30568 36.1292 1.53393 36.8244 1.95707 37.3995L3.9259 40.0751C4.23698 40.4979 4.64312 40.8416 5.11153 41.0785C5.57994 41.3154 6.0975 41.4388 6.6224 41.4388H15.8557C16.6534 41.4388 17.2998 40.7923 17.2998 39.9948C17.2998 39.6924 17.2049 39.3977 17.0285 39.1521C16.8521 38.9066 16.603 38.7226 16.3165 38.6261C15.5001 38.3513 14.7614 37.8851 14.1621 37.2665C13.5627 36.6479 13.1201 35.8948 12.8712 35.0702L11.111 29.238C10.9354 28.6559 10.6169 28.127 10.1847 27.6993C9.7524 27.2717 9.22008 26.959 8.63613 26.7896L3.44959 25.2851C2.37698 24.9739 1.30566 25.7786 1.30566 26.8954Z" stroke="#2C2828" stroke-width="1.5" stroke-miterlimit="10" stroke-linecap="round" stroke-linejoin="round"/>
<path id="Vector_10" d="M46.239 22.4153C47.1289 22.4153 47.8503 21.6939 47.8503 20.804C47.8503 19.914 47.1289 19.1926 46.239 19.1926C45.349 19.1926 44.6276 19.914 44.6276 20.804C44.6276 21.6939 45.349 22.4153 46.239 22.4153Z" stroke="#2C2828" stroke-width="1.5" stroke-miterlimit="10" stroke-linecap="round" stroke-linejoin="round"/>
</g>
</g>
<defs>
<clipPath id="clip0_10_69">
<rect width="55" height="55" fill="white" transform="translate(0.5)"/>
</clipPath>
</defs>
</svg>
