<svg width="56" height="55" viewBox="0 0 56 55" fill="none" xmlns="http://www.w3.org/2000/svg">
<g id="Frame" clip-path="url(#clip0_10_81)">
<g id="Group">
<path id="Vector" d="M47.066 42.5733C46.4207 41.0689 45.1774 39.8617 43.6546 39.2612L34.2819 35.5653C34.1827 35.5267 34.0975 35.4589 34.0376 35.3709C33.9777 35.2828 33.9459 35.1788 33.9463 35.0723V32.1598C35.9533 30.6543 37.4068 28.6823 38.2745 26.2845C38.5677 25.4742 38.7934 24.614 38.9525 23.7085C40.9957 23.6135 42.6289 21.9218 42.6289 19.8555C42.6289 19.436 42.5586 19.0191 42.4256 18.6237C43.0503 18.1988 43.4614 17.4824 43.4614 16.6716V16.4741C43.4614 15.1733 42.4032 14.1149 41.1023 14.1149H40.5128V12.3319C40.5128 8.10899 38.2242 4.26163 34.5275 2.23852C34.4404 0.989645 33.3973 0 32.1267 0C31.3713 0 30.6962 0.350114 30.2545 0.896166C29.8413 0.851745 29.426 0.829426 29.0104 0.829302H27.2567C26.7649 0.829302 26.2698 0.860678 25.7851 0.922673C25.7548 0.926568 25.7253 0.932302 25.6963 0.939335C25.2546 0.430718 24.6039 0.108193 23.879 0.108193C22.5919 0.108193 21.5376 1.12337 21.4745 2.39508C21.4413 2.40925 21.4085 2.42494 21.3767 2.44387C17.9087 4.51037 15.7542 8.29919 15.7542 12.3318V14.1148H14.9574C13.6565 14.1148 12.5982 15.1732 12.5982 16.474V16.6715C12.5982 17.5074 13.0356 18.2427 13.6932 18.6618C13.5678 19.0473 13.5043 19.4502 13.505 19.8555C13.505 21.8779 15.0695 23.5406 17.0518 23.6995C17.2086 24.5954 17.4303 25.447 17.7184 26.2497C18.5839 28.6612 20.04 30.6435 22.0539 32.1557V35.0723C22.0543 35.1788 22.0224 35.2828 21.9625 35.3708C21.9026 35.4589 21.8174 35.5267 21.7182 35.5653L12.3456 39.2612C10.8227 39.8617 9.57938 41.0689 8.93412 42.5734C7.48011 45.9641 6.74277 49.554 6.74277 53.2433C6.74277 54.2119 7.53085 55 8.4995 55H35.7252C36.1734 55 36.5366 54.6367 36.5366 54.1886C36.5366 53.7404 36.1734 53.3771 35.7252 53.3771H28.2726V51.3777H29.9986C30.73 51.3777 31.325 50.7827 31.325 50.0513V48.056C31.325 47.3247 30.73 46.7296 29.9986 46.7296H28.2726V44.4424H32.0821C33.8309 44.4424 35.2537 43.0196 35.2537 41.2707V37.693L36.656 38.2459V42.4303C36.656 43.7053 37.1385 44.9177 38.0149 45.8441L39.2423 47.1416C39.5539 47.4699 39.7272 47.9054 39.7265 48.358V53.3771H38.9711C38.5228 53.3771 38.1596 53.7404 38.1596 54.1886C38.1596 54.6367 38.5228 55 38.9711 55H47.5008C48.4695 55 49.2575 54.2119 49.2575 53.2433C49.2574 49.5539 48.5201 45.9639 47.066 42.5733ZM23.6767 33.1889C25.0284 33.8847 26.5153 34.2339 28.0028 34.2339C29.4883 34.2339 30.9731 33.8855 32.3234 33.1917V35.026C32.309 35.0411 32.2951 35.0568 32.2819 35.0731L31.8414 35.6283C30.9056 36.8075 29.5055 37.4838 28 37.4838C26.4947 37.4838 25.0944 36.8075 24.1587 35.6283L23.711 35.0642C23.7 35.0504 23.6882 35.038 23.6767 35.0251V33.1889ZM39.1636 22.0535C39.2434 21.0889 39.2551 20.0803 39.1979 19.0306H40.8487C40.9533 19.293 41.0067 19.573 41.006 19.8554C41.006 20.9536 40.209 21.8673 39.1636 22.0535ZM38.8901 12.3318V14.1148H34.5342V4.13937C37.2452 5.96546 38.8901 9.01392 38.8901 12.3318ZM31.3421 14.1148V2.51571C31.3421 2.08305 31.694 1.73109 32.1267 1.73109C32.5593 1.73109 32.9113 2.08305 32.9113 2.51571V14.1148H31.3421ZM27.2567 2.4522H29.0104C29.2466 2.4522 29.4834 2.46064 29.7192 2.4773V14.1148H26.2865V2.51571C26.2865 2.5103 26.2862 2.505 26.2861 2.49959C26.6086 2.46816 26.9326 2.45234 27.2567 2.4522ZM17.3771 12.3318C17.3771 9.16311 18.9266 6.17038 21.4715 4.32417V7.77045C21.4715 7.98566 21.557 8.19205 21.7091 8.34423C21.8613 8.49641 22.0677 8.5819 22.2829 8.5819C22.4981 8.5819 22.7045 8.49641 22.8567 8.34423C23.0089 8.19205 23.0944 7.98566 23.0944 7.77045V2.51571C23.0944 2.08305 23.4463 1.73109 23.8791 1.73109C24.3116 1.73109 24.6637 2.08305 24.6637 2.51571V14.1148H23.0945V11.0161C23.0945 10.8009 23.009 10.5945 22.8568 10.4424C22.7046 10.2902 22.4982 10.2047 22.283 10.2047C22.0678 10.2047 21.8614 10.2902 21.7092 10.4424C21.5571 10.5945 21.4716 10.8009 21.4716 11.0161V14.1148H17.3771V12.3318ZM14.2211 16.474C14.2213 16.2788 14.299 16.0916 14.437 15.9536C14.575 15.8156 14.7622 15.7379 14.9574 15.7377H41.1024C41.2976 15.7379 41.4847 15.8156 41.6227 15.9536C41.7608 16.0916 41.8384 16.2788 41.8386 16.474V16.6715C41.8384 16.8667 41.7608 17.0539 41.6227 17.1919C41.4847 17.3299 41.2976 17.4075 41.1024 17.4078H14.9574C14.7622 17.4075 14.575 17.3299 14.437 17.1919C14.299 17.0539 14.2213 16.8667 14.2211 16.6715V16.474ZM15.1279 19.8554C15.1279 19.5692 15.1835 19.2926 15.2879 19.0306H16.8074C16.7505 20.0702 16.7619 21.0696 16.8397 22.0258C15.8593 21.7894 15.1279 20.9073 15.1279 19.8554ZM18.4335 19.0306H37.5719C37.9082 24.7621 36.0976 28.9253 32.1846 31.405C29.6443 33.0149 26.3613 33.0148 23.821 31.405C19.9074 28.9249 18.0969 24.762 18.4335 19.0306ZM8.36556 53.2433C8.36556 49.7751 9.05865 46.4005 10.4256 43.213C10.9012 42.1038 11.818 41.2137 12.9407 40.771L17.7254 38.8843V42.4303C17.7254 43.2888 17.4005 44.1051 16.8105 44.7289L15.5833 46.0263C14.9861 46.6556 14.6537 47.4905 14.6551 48.358V53.3771H8.4995C8.46401 53.3771 8.42997 53.363 8.40486 53.3379C8.37975 53.3128 8.36562 53.2788 8.36556 53.2433ZM29.7021 49.7548H23.4664V48.3525H29.7021V49.7548ZM23.1699 46.7296C22.4385 46.7296 21.8435 47.3247 21.8435 48.056V50.0513C21.8435 50.7827 22.4385 51.3777 23.1699 51.3777H26.6497V53.3771H16.2779V48.358C16.2779 47.9037 16.4498 47.4717 16.7621 47.1416L17.9894 45.8441C18.8637 44.9228 19.3502 43.7005 19.3483 42.4303C19.3483 42.4303 19.3468 38.2619 19.3458 38.2453L20.7507 37.6913V41.2707C20.7507 43.0195 22.1734 44.4424 23.9223 44.4424H26.6497V46.7296H23.1699ZM32.0821 42.8195H23.9223C23.0683 42.8195 22.3736 42.1248 22.3736 41.2707V37.0488C22.5785 36.9611 22.7687 36.8423 22.9374 36.6965C24.1825 38.2285 26.0224 39.1068 28.0001 39.1068C29.9778 39.1068 31.8179 38.2285 33.063 36.6965C33.2328 36.8433 33.4244 36.9628 33.6309 37.0506V41.2707C33.6308 42.1247 32.936 42.8195 32.0821 42.8195ZM47.5007 53.3771H41.3494V48.358C41.3494 47.4871 41.0198 46.6589 40.4213 46.0263L39.194 44.7289C38.6053 44.1085 38.2776 43.2855 38.279 42.4303V38.8859L43.0594 40.771C44.1821 41.2137 45.0989 42.1038 45.5747 43.213C46.9415 46.4004 47.6346 49.775 47.6346 53.2433C47.6345 53.2787 47.6204 53.3127 47.5953 53.3378C47.5702 53.3629 47.5362 53.377 47.5007 53.3771Z" fill="#2C2828"/>
</g>
<rect id="Rectangle 10" x="13.35" y="14.85" width="29.3" height="3.3" rx="1.65" stroke="#FC7C21" stroke-width="1.7"/>
</g>
<defs>
<clipPath id="clip0_10_81">
<rect width="55" height="55" fill="white" transform="translate(0.5)"/>
</clipPath>
</defs>
</svg>
