<svg width="56" height="55" viewBox="0 0 56 55" fill="none" xmlns="http://www.w3.org/2000/svg">
<g id="Frame">
<g id="Group">
<path id="Vector" d="M47.7501 3.38894V1.66675C47.7501 0.747655 47.0024 0 46.0832 0H9.91682C8.99772 0 8.25006 0.747655 8.25006 1.66675V3.38894C8.25006 4.01585 8.59832 4.56252 9.11115 4.84708V15.5H9.05572C8.84205 15.5 8.63712 15.5849 8.48603 15.736C8.33494 15.887 8.25006 16.092 8.25006 16.3056C8.25006 16.5193 8.33494 16.7242 8.48603 16.8753C8.63712 17.0264 8.84205 17.1113 9.05572 17.1113H9.11115V37.8887H9.05572C8.84205 37.8887 8.63712 37.9736 8.48603 38.1247C8.33494 38.2758 8.25006 38.4807 8.25006 38.6944C8.25006 38.908 8.33494 39.113 8.48603 39.264C8.63712 39.4151 8.84205 39.5 9.05572 39.5H9.11115V50.1529C8.59832 50.4375 8.25006 50.9841 8.25006 51.6111V53.3332C8.25006 54.2523 8.99772 55 9.91682 55H46.0833C47.0024 55 47.7501 54.2523 47.7501 53.3332V51.6111C47.7501 50.9841 47.4018 50.4375 46.889 50.1529V39.5H46.9444C47.1581 39.5 47.363 39.4151 47.5141 39.264C47.6652 39.113 47.7501 38.908 47.7501 38.6944C47.7501 38.4807 47.6652 38.2758 47.5141 38.1247C47.363 37.9736 47.1581 37.8887 46.9444 37.8887H46.889V17.1113H46.9444C47.1581 17.1113 47.363 17.0264 47.5141 16.8753C47.6652 16.7242 47.7501 16.5193 47.7501 16.3056C47.7501 16.092 47.6652 15.887 47.5141 15.736C47.363 15.5849 47.1581 15.5 46.9444 15.5H46.889V4.84708C47.4018 4.56252 47.7501 4.01585 47.7501 3.38894ZM9.86139 1.66675C9.86139 1.63614 9.8862 1.61133 9.91682 1.61133H46.0833C46.1139 1.61133 46.1388 1.63614 46.1388 1.66675V3.38894C46.1388 3.40364 46.1329 3.41774 46.1225 3.42813C46.1121 3.43853 46.098 3.44437 46.0833 3.44437H9.91682C9.90211 3.44437 9.88802 3.43853 9.87762 3.42813C9.86723 3.41774 9.86139 3.40364 9.86139 3.38894V1.66675ZM39.1942 17.1113H45.2776V37.8887H20.2502C20.0366 37.8887 19.8316 37.9736 19.6806 38.1247C19.5295 38.2758 19.4446 38.4807 19.4446 38.6944C19.4446 38.908 19.5295 39.113 19.6806 39.264C19.8316 39.4151 20.0366 39.5 20.2502 39.5H45.2776V49.9442H10.7225V39.5H16.8059C17.0195 39.5 17.2245 39.4151 17.3756 39.264C17.5267 39.113 17.6115 38.908 17.6115 38.6944C17.6115 38.4807 17.5267 38.2758 17.3756 38.1247C17.2245 37.9736 17.0195 37.8887 16.8059 37.8887H10.7225V17.1113H35.7498C35.9635 17.1113 36.1684 17.0264 36.3195 16.8753C36.4706 16.7242 36.5555 16.5193 36.5555 16.3056C36.5555 16.092 36.4706 15.887 36.3195 15.736C36.1684 15.5849 35.9635 15.5 35.7498 15.5H10.7225V5.05569H45.2777V15.4999H39.1943C38.9806 15.4999 38.7757 15.5848 38.6246 15.7358C38.4735 15.8869 38.3886 16.0919 38.3886 16.3055C38.3886 16.4113 38.4094 16.5161 38.4499 16.6139C38.4903 16.7116 38.5497 16.8005 38.6245 16.8753C38.6993 16.9501 38.7881 17.0095 38.8858 17.05C38.9836 17.0905 39.0884 17.1113 39.1942 17.1113ZM46.1388 53.3331C46.1388 53.3478 46.1329 53.3619 46.1225 53.3723C46.1121 53.3827 46.098 53.3886 46.0833 53.3886H9.91682C9.90211 53.3886 9.88802 53.3827 9.87762 53.3723C9.86723 53.3619 9.86139 53.3478 9.86139 53.3331V51.611C9.86139 51.5803 9.8862 51.5555 9.91682 51.5555H46.0833C46.1139 51.5555 46.1388 51.5803 46.1388 51.611V53.3331Z" fill="#2C2828"/>
<path id="Vector_2" d="M28.6118 19.2258C28.5362 19.1375 28.4424 19.0666 28.3368 19.0181C28.2312 18.9695 28.1163 18.9443 28.0001 18.9443C27.8838 18.9443 27.769 18.9695 27.6634 19.0181C27.5578 19.0666 27.4639 19.1375 27.3883 19.2258C27.1694 19.4811 22.0277 25.5322 22.0277 30.0833C22.0277 33.3764 24.7068 36.0556 28.0001 36.0556C31.2933 36.0556 33.9724 33.3765 33.9724 30.0833C33.9724 25.5321 28.8307 19.4811 28.6118 19.2258ZM28 34.4443C25.5953 34.4443 23.639 32.4881 23.639 30.0833C23.639 26.9791 26.6712 22.7415 28.0002 21.0333C29.3294 22.7404 32.3609 26.9745 32.3609 30.0833C32.361 32.4881 30.4046 34.4443 28 34.4443Z" fill="#FC7C21"/>
<path id="Vector_3" d="M29.7222 29.2776C29.5086 29.2776 29.3036 29.3625 29.1526 29.5136C29.0015 29.6647 28.9166 29.8696 28.9166 30.0833C28.9166 30.5887 28.5054 30.9998 28.0001 30.9998C27.7864 30.9998 27.5815 31.0847 27.4304 31.2357C27.2793 31.3868 27.1944 31.5918 27.1944 31.8054C27.1944 32.0191 27.2793 32.224 27.4304 32.3751C27.5815 32.5262 27.7864 32.6111 28.0001 32.6111C29.394 32.6111 30.5279 31.4771 30.5279 30.0833C30.5279 29.8696 30.443 29.6647 30.2919 29.5136C30.1408 29.3625 29.9359 29.2776 29.7222 29.2776Z" fill="#2C2828"/>
</g>
</g>
</svg>
