<svg width="56" height="55" viewBox="0 0 56 55" fill="none" xmlns="http://www.w3.org/2000/svg">
<g id="Frame" clip-path="url(#clip0_10_125)">
<g id="Group">
<path id="Vector" d="M53.0831 23.4709H52.2779V12.4597C52.2779 9.64612 49.9888 7.35707 47.1754 7.35707H25.0487L10.1211 3.092C10.1168 3.09082 10.1124 3.09017 10.1081 3.08899C10.1037 3.08781 10.0995 3.08609 10.0951 3.08502C10.0861 3.08276 10.0772 3.08169 10.0683 3.07975C10.0544 3.07685 10.0405 3.07384 10.0267 3.07159C10.0141 3.06955 10.0018 3.06826 9.9892 3.06675C9.9747 3.06497 9.96016 3.06361 9.94559 3.06267C9.93377 3.06203 9.92206 3.06192 9.91024 3.0617C9.89528 3.06138 9.8803 3.06149 9.86534 3.06203C9.85428 3.06246 9.84321 3.06353 9.83226 3.06439C9.81692 3.06555 9.80162 3.0672 9.78639 3.06933C9.77608 3.07084 9.76587 3.07277 9.75567 3.0746C9.73998 3.07739 9.72451 3.0804 9.70915 3.08416C9.69959 3.08652 9.69025 3.0892 9.68079 3.09189C9.66511 3.0964 9.64964 3.10102 9.63417 3.10639C9.62547 3.10951 9.61688 3.11284 9.60818 3.11628C9.59258 3.12223 9.57717 3.12868 9.56198 3.13561C9.55393 3.13937 9.54609 3.14345 9.53814 3.14743C9.52296 3.15492 9.50806 3.16294 9.49345 3.17149C9.48582 3.17589 9.47852 3.18062 9.471 3.18535C9.4566 3.19437 9.44242 3.20361 9.42867 3.2136C9.42148 3.21876 9.41449 3.22434 9.4074 3.22982C9.39411 3.23996 9.38114 3.25053 9.36852 3.26151C9.36143 3.26774 9.35466 3.27429 9.34778 3.28074C9.33597 3.29191 9.32426 3.30308 9.31309 3.3149C9.30611 3.32231 9.29955 3.33004 9.29279 3.33778C9.28248 3.34945 9.27253 3.36141 9.26292 3.37366C9.25605 3.38257 9.2496 3.3917 9.24305 3.40084C9.23449 3.41269 9.22629 3.4248 9.21845 3.43714C9.21179 3.44767 9.20567 3.45863 9.19954 3.46948C9.19265 3.48139 9.1861 3.4935 9.17989 3.50579C9.17387 3.51782 9.1685 3.53017 9.16302 3.54252C9.15765 3.55466 9.15239 3.5668 9.14766 3.57926C9.14272 3.59237 9.13842 3.6058 9.13402 3.61933C9.13122 3.62803 9.12779 3.6362 9.12521 3.645C9.12392 3.64941 9.12338 3.65371 9.1222 3.658C9.12102 3.66241 9.1193 3.6666 9.11823 3.671L8.19698 7.35685H5.60307C2.79517 7.35685 0.510098 9.63666 0.500859 12.4425C0.500752 12.4483 0.5 12.4538 0.5 12.4595V40.3891C0.5 40.8338 0.862011 41.1948 1.30566 41.1948C1.75039 41.1948 2.11133 40.8338 2.11133 40.3891V16.1755C3.02484 17.0345 4.2531 17.5623 5.60307 17.5623H47.1754L47.1782 17.5622C49.1019 17.5637 50.6666 19.1293 50.6666 21.0535V26.6936H41.803L41.8015 26.6937C41.7526 26.6939 41.7039 26.6986 41.6559 26.7077C41.6522 26.7083 41.6485 26.7087 41.6448 26.7094C41.6238 26.7138 41.6031 26.719 41.5826 26.725C41.578 26.7263 41.5734 26.7271 41.569 26.7285C41.5508 26.7341 41.533 26.7408 41.5153 26.7475C41.5085 26.7501 41.5017 26.7523 41.4949 26.7551C41.4801 26.7612 41.4658 26.7684 41.4515 26.7754C41.442 26.7799 41.4325 26.7841 41.4233 26.7889C41.4121 26.7948 41.4016 26.8016 41.3908 26.808C41.3789 26.8151 41.3667 26.822 41.3551 26.8297C41.3473 26.8349 41.3401 26.8408 41.3326 26.8463C41.3188 26.8561 41.305 26.8659 41.2919 26.8768C41.2862 26.8815 41.2809 26.8868 41.2754 26.8916C41.2614 26.9038 41.2473 26.916 41.234 26.9293C41.2261 26.9371 41.219 26.9457 41.2116 26.9539C41.2012 26.9652 41.1905 26.9762 41.1806 26.9883C41.1636 27.0089 41.1477 27.0304 41.1329 27.0526L36.8362 33.498C36.8064 33.5427 36.7811 33.5903 36.7608 33.64C36.7532 33.6585 36.7471 33.6773 36.741 33.696C36.7391 33.7017 36.7368 33.7072 36.735 33.7129C36.7293 33.7326 36.7242 33.7526 36.72 33.7728C36.7188 33.7781 36.7173 33.7832 36.7162 33.7885C36.7129 33.8065 36.7102 33.8246 36.7081 33.8428C36.7071 33.8506 36.7056 33.8583 36.7049 33.8662C36.7034 33.8811 36.703 33.8959 36.7025 33.9108C36.702 33.9222 36.701 33.9336 36.701 33.9451C36.701 33.9562 36.702 33.9672 36.7024 33.9783C36.7029 33.9936 36.7034 34.0089 36.7049 34.0242C36.7056 34.0316 36.707 34.039 36.708 34.0464C36.7103 34.0649 36.7127 34.0834 36.7164 34.1017C36.7173 34.1068 36.7188 34.1117 36.72 34.1168C36.7244 34.137 36.7291 34.1572 36.7352 34.1773C36.7369 34.1829 36.7392 34.1884 36.7411 34.1942C36.7472 34.2129 36.7533 34.2317 36.7609 34.2502C36.7811 34.2996 36.8065 34.3473 36.8366 34.3923L41.1331 40.8368L41.1338 40.8376C41.151 40.8633 41.1699 40.8878 41.1899 40.9113C41.1965 40.919 41.2035 40.9262 41.2102 40.9335C41.2458 40.9723 41.285 41.0076 41.3274 41.0387C41.3349 41.0442 41.3421 41.0502 41.3498 41.0554C41.3739 41.0718 41.399 41.0869 41.4249 41.1007C41.4314 41.1041 41.4382 41.107 41.4447 41.1102C41.493 41.1345 41.5436 41.1536 41.5959 41.1674C41.6046 41.1696 41.6132 41.172 41.622 41.1742C41.6438 41.1792 41.6659 41.1831 41.6884 41.1863C41.6965 41.1875 41.7046 41.1891 41.7127 41.1901C41.7405 41.1932 41.7686 41.1949 41.7972 41.1951C41.7994 41.1951 41.8017 41.1955 41.8041 41.1955L41.8056 41.1954H50.6669V46.8359C50.6669 48.7611 49.1007 50.3273 47.1757 50.3273H5.6035C3.6785 50.3273 2.11229 48.7611 2.11229 46.8359C2.11229 46.8317 2.11175 46.8277 2.11165 46.8235V43.6122C2.11165 43.1686 1.75071 42.8065 1.30598 42.8065C0.862333 42.8065 0.500322 43.1686 0.500322 43.6122V46.8359C0.500322 46.8443 0.501289 46.8525 0.501611 46.8607C0.515039 49.6629 2.79829 51.9387 5.6035 51.9387H47.1757C49.9889 51.9387 52.2778 49.6501 52.2782 46.8368V41.1954H53.0834C54.4159 41.1954 55.5 40.1113 55.5 38.7789V25.8874C55.4997 24.555 54.4156 23.4709 53.0831 23.4709ZM10.4795 4.87015L24.6955 8.93208L24.6976 8.93262L34.2255 11.6549H8.78371L10.4795 4.87015ZM50.6665 17.3373C49.753 16.4786 48.525 15.9508 47.1754 15.9508L47.1712 15.951H5.60307C3.67796 15.951 2.11175 14.3848 2.11175 12.4597C2.11175 10.5346 3.67796 8.96839 5.60307 8.96839H7.79425L7.12287 11.6549H5.60328C5.38961 11.6549 5.18468 11.7398 5.03359 11.8909C4.8825 12.042 4.79762 12.2469 4.79762 12.4606C4.79762 12.6742 4.8825 12.8792 5.03359 13.0303C5.18468 13.1813 5.38961 13.2662 5.60328 13.2662H7.74914L7.75257 13.2664L7.75504 13.2662H39.9752L39.9782 13.2664L39.9808 13.2662H46.1002C46.3139 13.2662 46.5188 13.1813 46.6699 13.0303C46.821 12.8792 46.9058 12.6742 46.9058 12.4606C46.9058 12.2469 46.821 12.042 46.6699 11.8909C46.5188 11.7398 46.3139 11.6549 46.1002 11.6549H40.0907L30.6882 8.96839H47.1753C49.1002 8.96839 50.6665 10.5346 50.6665 12.4597V17.3373ZM53.8884 38.7784C53.8884 39.2224 53.5271 39.5837 53.0831 39.5837H42.2342L38.4745 33.9447L42.2342 28.3048H53.0831C53.0944 28.3048 53.1054 28.3035 53.1165 28.3031C53.3796 28.2997 53.6403 28.2532 53.8884 28.1655V38.7784ZM53.0831 26.6926C53.0775 26.6926 53.0721 26.6934 53.0665 26.6935H52.2779V25.0822H53.0831C53.5271 25.0822 53.8884 25.4434 53.8884 25.8874C53.8884 26.3314 53.5271 26.6926 53.0831 26.6926Z" fill="#2C2828"/>
<path id="Vector_2" d="M45.0262 30.9905C43.3972 30.9905 42.0721 32.3157 42.0721 33.9447C42.0721 35.5736 43.3972 36.8988 45.0262 36.8988C46.6551 36.8988 47.9803 35.5736 47.9803 33.9447C47.9803 32.3157 46.6551 30.9905 45.0262 30.9905ZM45.0262 35.2875C44.2857 35.2875 43.6834 34.6851 43.6834 33.9447C43.6834 33.2042 44.2857 32.6018 45.0262 32.6018C45.7666 32.6018 46.369 33.2042 46.369 33.9447C46.369 34.6851 45.7666 35.2875 45.0262 35.2875Z" fill="#FC7C21"/>
</g>
</g>
<defs>
<clipPath id="clip0_10_125">
<rect width="55" height="55" fill="white" transform="translate(0.5)"/>
</clipPath>
</defs>
</svg>
